# Blender 4.3.2
# www.blender.org
mtllib arrow.mtl
o Cube
v 0.127358 1.090381 -0.127358
v 0.127358 -1.433853 -0.127358
v 0.127358 1.090381 0.127358
v 0.127358 -1.433853 0.127358
v -0.127358 1.090381 -0.127358
v -0.127358 -1.433853 -0.127358
v -0.127358 1.090381 0.127358
v -0.127358 -1.433853 0.127358
v 0.316569 1.090381 0.316569
v -0.316569 1.090381 0.316569
v 0.316569 1.090381 -0.316569
v -0.316569 1.090381 -0.316569
v 0.000000 2.044037 0.000000
vn -0.0000 -1.0000 -0.0000
vn -0.0000 -0.0000 1.0000
vn -1.0000 -0.0000 -0.0000
vn 1.0000 -0.0000 -0.0000
vn -0.0000 -0.0000 -1.0000
vn -0.9491 0.3150 -0.0000
vn -0.0000 0.3150 0.9491
vn -0.0000 0.3150 -0.9491
vn 0.9491 0.3150 -0.0000
vt 0.625000 0.250000
vt 0.625000 0.000000
vt 0.375000 0.750000
vt 0.625000 0.750000
vt 0.625000 1.000000
vt 0.375000 1.000000
vt 0.375000 0.000000
vt 0.375000 0.250000
vt 0.125000 0.500000
vt 0.375000 0.500000
vt 0.125000 0.750000
vt 0.625000 0.500000
s 0
usemtl Material
f 5/1/1 7/2/1 10/2/1 12/1/1
f 4/3/2 3/4/2 7/5/2 8/6/2
f 8/7/3 7/2/3 5/1/3 6/8/3
f 6/9/1 2/10/1 4/3/1 8/11/1
f 2/10/4 1/12/4 3/4/4 4/3/4
f 6/8/5 5/1/5 1/12/5 2/10/5
f 12/1/6 10/2/6 13/1/6
f 3/4/1 1/12/1 11/12/1 9/4/1
f 1/12/1 5/1/1 12/1/1 11/12/1
f 7/5/1 3/4/1 9/4/1 10/5/1
f 10/5/7 9/4/7 13/5/7
f 11/12/8 12/1/8 13/12/8
f 9/4/9 11/12/9 13/4/9
