# Blender 4.3.2
# www.blender.org
mtllib machine.mtl
o Cube
v 1.000000 1.000000 -1.000000
v 1.000000 -1.000000 -1.000000
v 1.000000 1.000000 1.000000
v 1.000000 -1.000000 1.000000
v -1.000000 1.000000 -1.000000
v -1.000000 -1.000000 -1.000000
v -1.000000 1.000000 1.000000
v -1.000000 -1.000000 1.000000
v 1.000000 1.672862 1.000000
v -1.000000 1.672862 1.000000
v 1.000000 1.672862 -1.000000
v -1.000000 1.672862 -1.000000
v 0.695820 1.672862 0.695820
v -0.695820 1.672862 0.695820
v 0.695820 1.672862 -0.695820
v -0.695820 1.672862 -0.695820
v 0.695820 2.292941 0.695820
v -0.695820 2.292941 0.695820
v 0.695820 1.904344 -0.695820
v -0.695820 1.904344 -0.695820
v -1.000000 -1.000000 0.000000
v 1.000000 1.000000 0.000000
v -1.000000 1.000000 0.000000
v 1.000000 -1.000000 0.000000
v 1.000000 1.672862 0.000000
v -1.000000 1.672862 0.000000
v 0.695820 1.672862 0.000000
v -0.695820 1.672862 0.000000
v 0.695820 2.292941 0.000000
v -0.695820 2.292941 0.000000
v 1.024133 2.648566 1.304321
v -1.024133 2.648566 1.304321
v 1.024133 3.385240 0.592872
v -1.024133 3.385240 0.592872
v 0.909040 2.689960 1.264345
v -0.909040 2.689960 1.264345
v 0.909040 3.343846 0.632848
v -0.909040 3.343846 0.632848
v 0.368152 2.537100 0.716760
v -0.368152 2.537100 0.716760
v 0.368152 2.801916 0.461010
v -0.368152 2.801916 0.461010
vn 1.0000 -0.0000 -0.0000
vn -0.0000 -0.0000 1.0000
vn -1.0000 -0.0000 -0.0000
vn -0.0000 -1.0000 -0.0000
vn -0.0000 -0.0000 -1.0000
vn -0.0000 1.0000 -0.0000
vn 0.9418 -0.2978 -0.1559
vn -0.0000 0.8731 -0.4876
vn -0.0000 0.6947 0.7193
vn -0.9418 -0.2978 -0.1559
vn -0.0000 -0.8634 0.5046
vn -0.0000 0.4770 -0.8789
vn -0.0000 -0.3023 0.9532
vn -0.6789 0.5101 0.5282
vn 0.6789 0.5101 0.5282
vn -0.0000 0.9632 -0.2689
vt 0.625000 0.625000
vt 0.625000 0.500000
vt 0.375000 0.750000
vt 0.625000 0.750000
vt 0.625000 1.000000
vt 0.375000 1.000000
vt 0.375000 0.125000
vt 0.625000 0.125000
vt 0.625000 0.250000
vt 0.375000 0.250000
vt 0.125000 0.625000
vt 0.375000 0.625000
vt 0.125000 0.750000
vt 0.375000 0.500000
vt 0.625000 0.000000
vt 0.875000 0.500000
vt 0.875000 0.625000
vt 0.125000 0.500000
vt 0.375000 0.000000
vt 0.875000 0.750000
s 0
usemtl Material
f 22/1/1 1/2/1 11/2/1 25/1/1
f 4/3/2 3/4/2 7/5/2 8/6/2
f 21/7/3 23/8/3 5/9/3 6/10/3
f 21/11/4 24/12/4 4/3/4 8/13/4
f 24/12/1 22/1/1 3/4/1 4/3/1
f 6/10/5 5/9/5 1/2/5 2/14/5
f 26/8/6 10/15/6 14/15/6 28/8/6
f 1/2/5 5/9/5 12/9/5 11/2/5
f 7/5/2 3/4/2 9/4/2 10/5/2
f 23/8/3 7/15/3 10/15/3 26/8/3
f 15/2/5 16/9/5 20/9/5 19/2/5
f 10/5/6 9/4/6 13/4/6 14/5/6
f 11/2/6 12/9/6 16/9/6 15/2/6
f 25/1/6 11/2/6 15/2/6 27/1/6
f 17/4/7 29/1/7 33/1/7 31/4/7
f 27/1/1 15/2/1 19/2/1 29/1/1
f 28/8/3 14/15/3 18/15/3 30/8/3
f 14/5/2 13/4/2 17/4/2 18/5/2
f 16/9/3 28/8/3 30/8/3 20/9/3
f 13/4/1 27/1/1 29/1/1 17/4/1
f 19/2/8 20/16/8 30/17/8 29/1/8
f 9/4/6 25/1/6 27/1/6 13/4/6
f 5/9/3 23/8/3 26/8/3 12/9/3
f 12/9/6 26/8/6 28/8/6 16/9/6
f 2/14/1 1/2/1 22/1/1 24/12/1
f 6/18/4 2/14/4 24/12/4 21/11/4
f 8/19/3 7/15/3 23/8/3 21/7/3
f 3/4/1 22/1/1 25/1/1 9/4/1
f 34/8/9 32/15/9 36/15/9 38/8/9
f 30/8/10 18/15/10 32/15/10 34/8/10
f 18/5/11 17/4/11 31/4/11 32/5/11
f 29/1/12 30/17/12 34/17/12 33/1/12
f 37/1/13 38/17/13 42/17/13 41/1/13
f 32/5/9 31/4/9 35/4/9 36/5/9
f 33/1/9 34/17/9 38/17/9 37/1/9
f 31/4/9 33/1/9 37/1/9 35/4/9
f 41/1/9 42/17/9 40/20/9 39/4/9
f 35/4/14 37/1/14 41/1/14 39/4/14
f 38/8/15 36/15/15 40/15/15 42/8/15
f 36/5/16 35/4/16 39/4/16 40/5/16
